<svg xmlns="http://www.w3.org/2000/svg" xmlns:xlink="http://www.w3.org/1999/xlink" xmlns:rdf="http://www.w3.org/1999/02/22-rdf-syntax-ns#" xmlns:dc="http://purl.org/dc/elements/1.1/" version="1.1" baseProfile="full" stroke-linecap="round" stroke-linejoin="round" fill-rule="evenodd" width="98" height="90" viewBox="0 0 1960 1800"><metadata><rdf:RDF><rdf:Description><dc:description>MSS/MilX-Export to SVG</dc:description><dc:publisher>gs-soft AG</dc:publisher></rdf:Description></rdf:RDF></metadata><defs><mask id="cr0" maskUnits="userSpaceOnUse" x="0" y="0" width="1960" height="1800" fill-rule="nonzero"><use xlink:href="#cp0" fill="white"/></mask><polygon id="cp0" points="0,40 1960,40 1960,1760 0,1760" shape-rendering="crispEdges"/><style type="text/css">.ps0 {fill:none;stroke:rgb(66,160,255);stroke-width:46;stroke-dasharray:92,92;}.ps1 {fill:none;stroke:rgb(66,160,255);stroke-width:46;}.ts0 {font-family:Arial;font-size:195px;font-weight:bold;fill:rgb(66,160,255);text-anchor:middle;}</style><g id="gb1"><g transform="matrix(0.0666667 0 0 0.0666667 0 0)"><text x="370" y="232" class="ts0">CATK</text></g></g></defs><g mask="url(#cr0)"><g transform="matrix(0.876958 0 0 0.882051 0 40)"><polyline points="1655,42 1925,192 1925,1099 1655,1249" class="ps0"/><polyline points="2187,645 1925,645" class="ps0"/><polyline points="2100,596 2187,645 2100,695" class="ps1"/><polyline points="33,1893 33,948 563,419 1393,419 1393,192 1790,645 1393,1099 1393,872 750,872 486,1136 486,1893" class="ps0"/></g><g transform="matrix(13.2617 0 0 13.2308 528.805 476.615)"><use xlink:href="#gb1"/></g></g></svg>
