<?xml version="1.0" encoding="UTF-8"?>
<svg version="1.1" xmlns="http://www.w3.org/2000/svg" width="348" height="271">
<path d="M0 0 C1.299375 0.00451172 2.59875 0.00902344 3.9375 0.01367188 C7.12504825 0.0253908 10.31249955 0.04179781 13.5 0.0625 C14.0625 2 14.0625 2 14.5 4.0625 C14.17 4.3925 13.84 4.7225 13.5 5.0625 C13.58984301 6.92022162 13.74611861 8.77497985 13.9375 10.625 C14.09025391 12.14287109 14.09025391 12.14287109 14.24609375 13.69140625 C14.32988281 14.47386719 14.41367188 15.25632812 14.5 16.0625 C11.5 16.0625 8.5 16.0625 5.5 16.0625 C4.675 16.248125 3.85 16.43375 3 16.625 C0.5 17.0625 0.5 17.0625 -1.5 16.0625 C-1.5 12.4325 -1.5 8.8025 -1.5 5.0625 C-2.49 5.0625 -3.48 5.0625 -4.5 5.0625 C-4.48839844 5.98933594 -4.47679687 6.91617188 -4.46484375 7.87109375 C-4.45582031 9.06863281 -4.44679687 10.26617187 -4.4375 11.5 C-4.42589844 12.69496094 -4.41429687 13.88992187 -4.40234375 15.12109375 C-4.5 18.0625 -4.5 18.0625 -5.5 19.0625 C-7.41451817 19.16233684 -9.33288619 19.19217589 -11.25 19.1875 C-12.29671875 19.19007812 -13.3434375 19.19265625 -14.421875 19.1953125 C-17.5 19.0625 -17.5 19.0625 -20.328125 18.4921875 C-21.40320313 18.27949219 -21.40320313 18.27949219 -22.5 18.0625 C-22.83 18.3925 -23.16 18.7225 -23.5 19.0625 C-26.30887563 19.26946978 -29.06287566 19.38695528 -31.875 19.4375 C-32.65617188 19.47488281 -33.43734375 19.51226562 -34.2421875 19.55078125 C-36.43270944 19.58453929 -38.36152954 19.5417235 -40.5 19.0625 C-43.37882509 15.91587722 -43.9134356 13.12698029 -43.875 8.9375 C-43.88273438 8.08929688 -43.89046875 7.24109375 -43.8984375 6.3671875 C-43.41643617 3.57914058 -42.79894228 2.68374955 -40.5 1.0625 C-35.92590939 0.69947694 -32.43606919 0.43845387 -28.5 3.0625 C-28.5 4.3825 -28.5 5.7025 -28.5 7.0625 C-32.12528568 7.26390476 -34.36501708 6.92026765 -37.5 5.0625 C-37.17 7.3725 -36.84 9.6825 -36.5 12.0625 C-33.2 12.0625 -29.9 12.0625 -26.5 12.0625 C-26.396875 11.175625 -26.29375 10.28875 -26.1875 9.375 C-25.44721251 5.80816028 -24.92078118 3.79564004 -22.5 1.0625 C-15.08682637 -0.39671522 -7.5252894 -0.04970974 0 0 Z " fill="#D3E8FF" transform="translate(238.5,97.9375)"/>
<path d="M0 0 C0.495 1.98 0.495 1.98 1 4 C0.50628906 4.32613281 0.01257813 4.65226562 -0.49609375 4.98828125 C-1.13675781 5.42527344 -1.77742188 5.86226563 -2.4375 6.3125 C-3.39462891 6.95638672 -3.39462891 6.95638672 -4.37109375 7.61328125 C-6.2885684 9.0034052 -6.2885684 9.0034052 -7 12 C-9.31 12 -11.62 12 -14 12 C-13.67 13.98 -13.34 15.96 -13 18 C-13.99 18 -14.98 18 -16 18 C-16 18.66 -16 19.32 -16 20 C-16.639375 20.45375 -17.27875 20.9075 -17.9375 21.375 C-20.2676157 23.21084873 -20.60401298 24.12909413 -21 27 C-23.31 27 -25.62 27 -28 27 C-28.433125 28.670625 -28.433125 28.670625 -28.875 30.375 C-30 34 -30 34 -32 36 C-35.74854566 37.92492885 -37.95037684 38.15703519 -42 37 C-42.25532751 33.93606987 -42.21861333 32.36766788 -40.625 29.6875 C-40.08875 29.130625 -39.5525 28.57375 -39 28 C-38.34 28 -37.68 28 -37 28 C-36.67 27.01 -36.34 26.02 -36 25 C-33.69 25 -31.38 25 -29 25 C-29.12375 24.2575 -29.2475 23.515 -29.375 22.75 C-29.25125 21.8425 -29.1275 20.935 -29 20 C-26.0625 17.8125 -26.0625 17.8125 -23 16 C-22.67 15.34 -22.34 14.68 -22 14 C-21.34 14 -20.68 14 -20 14 C-20 13.01 -20 12.02 -20 11 C-18.02 11 -16.04 11 -14 11 C-14.08636719 10.24332031 -14.17273438 9.48664063 -14.26171875 8.70703125 C-14 6 -14 6 -12.20703125 4.19921875 C-11.41683594 3.70035156 -10.62664062 3.20148438 -9.8125 2.6875 C-9.03519531 2.17574219 -8.25789063 1.66398437 -7.45703125 1.13671875 C-4.74944321 -0.11591737 -2.9470119 -0.22508261 0 0 Z " fill="#C4E1FF" transform="translate(334,113)"/>
<path d="M0 0 C2.5 1 2.5 1 4 2 C4 3.32 4 4.64 4 6 C0.37471432 6.20140476 -1.86501708 5.85776765 -5 4 C-4.67 6.31 -4.34 8.62 -4 11 C-0.7 11 2.6 11 6 11 C6.103125 10.113125 6.20625 9.22625 6.3125 8.3125 C7.0309117 4.85106181 7.7532071 2.72824852 10 0 C12.6875 -0.3125 12.6875 -0.3125 15 0 C15 1.65 15 3.3 15 5 C15.99 5.33 16.98 5.66 18 6 C18.66 9.3 19.32 12.6 20 16 C15 16 15 16 12.3125 15.375 C11.549375 15.25125 10.78625 15.1275 10 15 C9.34 15.66 8.68 16.32 8 17 C5.48935124 17.2528288 3.13638685 17.37024359 0.625 17.375 C-0.04789063 17.39949219 -0.72078125 17.42398438 -1.4140625 17.44921875 C-4.74886207 17.46891245 -6.6898354 17.21617533 -9.44921875 15.29296875 C-11.27119246 12.59901769 -11.51049691 11.16396358 -11.4375 7.9375 C-11.43556641 6.65166016 -11.43556641 6.65166016 -11.43359375 5.33984375 C-10.28234209 -0.87276654 -5.39544937 -0.66221813 0 0 Z " fill="#92C8FF" transform="translate(206,99)"/>
<path d="M0 0 C1.65 0 3.3 0 5 0 C5 0.99 5 1.98 5 3 C5.66 3 6.32 3 7 3 C7.0544452 5.20805524 7.09299283 7.41650554 7.125 9.625 C7.14820313 10.85476562 7.17140625 12.08453125 7.1953125 13.3515625 C7.0030428 16.94316041 6.30258556 19.66661175 5 23 C5.66 23 6.32 23 7 23 C7.02685095 25.47923801 7.04676547 27.9581884 7.0625 30.4375 C7.07087891 31.14455078 7.07925781 31.85160156 7.08789062 32.58007812 C7.09653588 34.38693559 7.05220011 36.19387603 7 38 C6 39 6 39 3 39.125 C0 39 0 39 -1 38 C-1.08700342 36.36527118 -1.10701063 34.72685945 -1.09765625 33.08984375 C-1.09443359 32.10048828 -1.09121094 31.11113281 -1.08789062 30.09179688 C-1.07951172 29.05087891 -1.07113281 28.00996094 -1.0625 26.9375 C-1.05798828 25.89271484 -1.05347656 24.84792969 -1.04882812 23.77148438 C-1.03699913 21.1809334 -1.02051689 18.59049441 -1 16 C-1.66 16 -2.32 16 -3 16 C-3 12.04 -3 8.08 -3 4 C-2.34 4 -1.68 4 -1 4 C-0.67 2.68 -0.34 1.36 0 0 Z " fill="#E2F1FF" transform="translate(161,198)"/>
<path d="M0 0 C1.2478125 0.00966797 2.495625 0.01933594 3.78125 0.02929688 C12.95674038 0.14424038 12.95674038 0.14424038 14.125 1.3125 C14.25 3.8125 14.25 3.8125 14.125 6.3125 C13.125 7.3125 13.125 7.3125 11.34667969 7.39428711 C10.58774414 7.3763208 9.82880859 7.35835449 9.046875 7.33984375 C8.21542969 7.32759766 7.38398438 7.31535156 6.52734375 7.30273438 C4.77465071 7.26788702 3.02203454 7.22889966 1.26953125 7.18554688 C-3.31293588 7.12552997 -6.66652983 7.29528216 -10.875 9.3125 C-11.865 9.3125 -12.855 9.3125 -13.875 9.3125 C-13.875 10.6325 -13.875 11.9525 -13.875 13.3125 C-16.185 13.3125 -18.495 13.3125 -20.875 13.3125 C-20.875 10.3425 -20.875 7.3725 -20.875 4.3125 C-14.27153048 -0.65479829 -8.03111278 -0.19021057 0 0 Z " fill="#B9DBFF" transform="translate(206.875,132.6875)"/>
<path d="M0 0 C1.93166016 0.01740234 1.93166016 0.01740234 3.90234375 0.03515625 C5.19269531 0.04417969 6.48304688 0.05320312 7.8125 0.0625 C8.81152344 0.07410156 9.81054688 0.08570312 10.83984375 0.09765625 C11.16984375 2.07765625 11.49984375 4.05765625 11.83984375 6.09765625 C11.17984375 6.09765625 10.51984375 6.09765625 9.83984375 6.09765625 C9.83984375 6.75765625 9.83984375 7.41765625 9.83984375 8.09765625 C5.54984375 8.75765625 1.25984375 9.41765625 -3.16015625 10.09765625 C-3.49015625 11.74765625 -3.82015625 13.39765625 -4.16015625 15.09765625 C-5.15015625 15.09765625 -6.14015625 15.09765625 -7.16015625 15.09765625 C-7.40765625 15.65453125 -7.65515625 16.21140625 -7.91015625 16.78515625 C-9.43893547 19.6133978 -10.87723321 21.81473321 -13.16015625 24.09765625 C-16.41015625 24.41015625 -16.41015625 24.41015625 -19.16015625 24.09765625 C-19.16015625 21.45765625 -19.16015625 18.81765625 -19.16015625 16.09765625 C-18.50015625 16.09765625 -17.84015625 16.09765625 -17.16015625 16.09765625 C-17.16015625 15.43765625 -17.16015625 14.77765625 -17.16015625 14.09765625 C-15.84015625 14.09765625 -14.52015625 14.09765625 -13.16015625 14.09765625 C-12.83015625 13.10765625 -12.50015625 12.11765625 -12.16015625 11.09765625 C-11.50015625 11.09765625 -10.84015625 11.09765625 -10.16015625 11.09765625 C-10.16015625 10.43765625 -10.16015625 9.77765625 -10.16015625 9.09765625 C-8.84015625 9.09765625 -7.52015625 9.09765625 -6.16015625 9.09765625 C-6.02738281 8.53175781 -5.89460937 7.96585937 -5.7578125 7.3828125 C-5.58121094 6.64933594 -5.40460938 5.91585937 -5.22265625 5.16015625 C-5.04863281 4.42925781 -4.87460938 3.69835937 -4.6953125 2.9453125 C-3.78522533 -0.19681326 -3.47515747 0.10739053 0 0 Z " fill="#C8E3FF" transform="translate(168.16015625,69.90234375)"/>
<path d="M0 0 C-0.36624327 6.10405445 -1.56860985 8.9625112 -6 13 C-9.3125 13.375 -9.3125 13.375 -12 13 C-12.04125 14.051875 -12.0825 15.10375 -12.125 16.1875 C-13.24922828 21.0859232 -14.79177072 22.35037416 -19 25 C-22.875 25.8125 -22.875 25.8125 -26 26 C-26.3125 23.3125 -26.3125 23.3125 -26 20 C-23.5625 17.375 -23.5625 17.375 -21 15 C-20.13880866 12.82653432 -20.13880866 12.82653432 -20 11 C-18.02 11 -16.04 11 -14 11 C-14.103125 10.236875 -14.20625 9.47375 -14.3125 8.6875 C-14.209375 7.800625 -14.10625 6.91375 -14 6 C-11.75 4.375 -11.75 4.375 -9 3 C-8.01 2.1646875 -8.01 2.1646875 -7 1.3125 C-4.51448445 -0.31861958 -2.91524679 -0.24293723 0 0 Z " fill="#D7EBFF" transform="translate(132,110)"/>
<path d="M0 0 C3.25 -0.3125 3.25 -0.3125 7 0 C9.125 2.375 9.125 2.375 11 5 C13.61818456 6.33298974 13.61818456 6.33298974 16 7 C16 8.32 16 9.64 16 11 C18.31 11.66 20.62 12.32 23 13 C23.12375 13.928125 23.12375 13.928125 23.25 14.875 C23.80583476 17.16088794 23.80583476 17.16088794 25.9375 18.1875 C26.618125 18.455625 27.29875 18.72375 28 19 C28.66 19.33 29.32 19.66 30 20 C29.67 21.65 29.34 23.3 29 25 C27.35 25 25.7 25 24 25 C23.67 24.34 23.34 23.68 23 23 C22.05125 22.855625 21.1025 22.71125 20.125 22.5625 C17 22 17 22 15.1875 20.75 C13.69593338 18.55190182 13.35284675 16.61106596 13 14 C11.35 14 9.7 14 8 14 C7.7525 13.05125 7.505 12.1025 7.25 11.125 C6.32970141 7.9323374 6.32970141 7.9323374 4 6.75 C3.34 6.5025 2.68 6.255 2 6 C1.34 5.34 0.68 4.68 0 4 C0 2.68 0 1.36 0 0 Z " fill="#E0EFFF" transform="translate(306,72)"/>
<path d="M0 0 C3.10408807 -0.05807043 6.2080364 -0.09361914 9.3125 -0.125 C10.19357422 -0.14175781 11.07464844 -0.15851563 11.98242188 -0.17578125 C12.82998047 -0.18222656 13.67753906 -0.18867187 14.55078125 -0.1953125 C15.72120972 -0.21102295 15.72120972 -0.21102295 16.9152832 -0.22705078 C19 0 19 0 22 2 C22 1.34 22 0.68 22 0 C23.32 0 24.64 0 26 0 C25.67 3.96 25.34 7.92 25 12 C25.66 12.33 26.32 12.66 27 13 C26.01 13 25.02 13 24 13 C23.67 11.68 23.34 10.36 23 9 C21.68 9 20.36 9 19 9 C19 10.65 19 12.3 19 14 C17.35 14 15.7 14 14 14 C14 10.04 14 6.08 14 2 C12.35 2.33 10.7 2.66 9 3 C9 6.63 9 10.26 9 14 C8.01 14 7.02 14 6 14 C5.90203125 13.30132812 5.8040625 12.60265625 5.703125 11.8828125 C5.55359375 10.97273438 5.4040625 10.06265625 5.25 9.125 C5.11078125 8.22007813 4.9715625 7.31515625 4.828125 6.3828125 C4.22016157 3.83785757 4.22016157 3.83785757 1.921875 2.6796875 C1.28765625 2.45539063 0.6534375 2.23109375 0 2 C0 1.34 0 0.68 0 0 Z " fill="#76BAFF" transform="translate(224,99)"/>
<path d="M0 0 C10.94454475 1.20269723 10.94454475 1.20269723 13.8046875 3.36328125 C15.0625 4.9375 15.0625 4.9375 17 8 C17.598125 8.556875 18.19625 9.11375 18.8125 9.6875 C20 11 20 11 20 14 C17.36 14 14.72 14 12 14 C11.67 13.01 11.34 12.02 11 11 C9.68 11 8.36 11 7 11 C7 11.99 7 12.98 7 14 C6.01 14.66 5.02 15.32 4 16 C2.68 15.67 1.36 15.34 0 15 C0 10.05 0 5.1 0 0 Z " fill="#A8D3FF" transform="translate(269,43)"/>
<path d="M0 0 C1.65 0 3.3 0 5 0 C6 1 6 1 6.0625 3.5625 C6.041875 4.366875 6.02125 5.17125 6 6 C7.32 6 8.64 6 10 6 C10.33 5.01 10.66 4.02 11 3 C14.465 2.505 14.465 2.505 18 2 C17.4739075 5.78786597 16.61896089 8.17152224 14 11 C13.34 11 12.68 11 12 11 C12 11.66 12 12.32 12 13 C9.69 13 7.38 13 5 13 C5 13.66 5 14.32 5 15 C3.35 15 1.7 15 0 15 C0 10.05 0 5.1 0 0 Z " fill="#95C9FF" transform="translate(270,152)"/>
<path d="M0 0 C2.29141286 -0.05384521 4.58318188 -0.09272087 6.875 -0.125 C8.78925781 -0.15980469 8.78925781 -0.15980469 10.7421875 -0.1953125 C14 0 14 0 16 2 C16.1875 5.0625 16.1875 5.0625 16 8 C14.06658053 9.93341947 10.62520879 9.17449133 8.0625 9.1875 C6.79535156 9.20167969 5.52820313 9.21585938 4.22265625 9.23046875 C1 9 1 9 -1 7 C-0.625 3.375 -0.625 3.375 0 0 Z " fill="#C0DFFF" transform="translate(226,70)"/>
<path d="M0 0 C3.46679688 0.04882812 3.46679688 0.04882812 6.93359375 0.09765625 C6.93359375 5.37765625 6.93359375 10.65765625 6.93359375 16.09765625 C4.62359375 16.09765625 2.31359375 16.09765625 -0.06640625 16.09765625 C-1.42080293 13.3888629 -1.13142076 11.08832357 -1.06640625 8.09765625 C-1.72640625 8.09765625 -2.38640625 8.09765625 -3.06640625 8.09765625 C-3.10882348 5.7647085 -3.10733562 3.43063058 -3.06640625 1.09765625 C-2.06640625 0.09765625 -2.06640625 0.09765625 0 0 Z " fill="#E0EFFF" transform="translate(269.06640625,131.90234375)"/>
<path d="M0 0 C2.05078125 0.03255208 4.1015625 0.06510417 6.15234375 0.09765625 C6.48234375 1.41765625 6.81234375 2.73765625 7.15234375 4.09765625 C8.14234375 4.09765625 9.13234375 4.09765625 10.15234375 4.09765625 C10.15234375 4.75765625 10.15234375 5.41765625 10.15234375 6.09765625 C11.14234375 6.09765625 12.13234375 6.09765625 13.15234375 6.09765625 C13.15234375 8.40765625 13.15234375 10.71765625 13.15234375 13.09765625 C8.52625177 13.42040685 5.87208254 12.94216239 2.15234375 10.09765625 C2.15234375 9.43765625 2.15234375 8.77765625 2.15234375 8.09765625 C0.50234375 7.76765625 -1.14765625 7.43765625 -2.84765625 7.09765625 C-2.89019981 5.09810879 -2.88846408 3.09723989 -2.84765625 1.09765625 C-1.84765625 0.09765625 -1.84765625 0.09765625 0 0 Z " fill="#C5E1FF" transform="translate(291.84765625,57.90234375)"/>
<path d="M0 0 C3 0.125 3 0.125 4 1.125 C4.12586907 3.4140608 4.17577971 5.70751118 4.1875 8 C4.20167969 9.25554687 4.21585938 10.51109375 4.23046875 11.8046875 C4 15.125 4 15.125 2 18.125 C0.02 17.795 -1.96 17.465 -4 17.125 C-4.02684679 14.47909986 -4.04676357 11.83346904 -4.0625 9.1875 C-4.07087891 8.43275391 -4.07925781 7.67800781 -4.08789062 6.90039062 C-4.09652441 4.97505687 -4.05224333 3.04964419 -4 1.125 C-3 0.125 -3 0.125 0 0 Z " fill="#CFE6FF" transform="translate(101,177.875)"/>
<path d="M0 0 C0.33 0.33 0.66 0.66 1 1 C0.71269945 3.33944736 0.38063221 5.6739143 0 8 C-0.78375 8.226875 -1.5675 8.45375 -2.375 8.6875 C-5.21875 9.78125 -5.21875 9.78125 -6.3125 12.625 C-6.539375 13.40875 -6.76625 14.1925 -7 15 C-8.98 15 -10.96 15 -13 15 C-13.31795637 10.94605634 -13.46278608 8.7021582 -11.1875 5.25 C-10.1046875 4.13625 -10.1046875 4.13625 -9 3 C-8.319375 2.1028125 -8.319375 2.1028125 -7.625 1.1875 C-5.13603751 -0.6313572 -2.98290616 -0.25938314 0 0 Z " fill="#CEE6FF" transform="translate(147,93)"/>
<path d="M0 0 C4.62 0 9.24 0 14 0 C14.33 2.31 14.66 4.62 15 7 C11.75684218 7.96604701 8.81491334 8.13419024 5.4375 8.125 C4.48746094 8.12757812 3.53742188 8.13015625 2.55859375 8.1328125 C0 8 0 8 -3 7 C-3 5.68 -3 4.36 -3 3 C-2.34 3 -1.68 3 -1 3 C-0.67 2.01 -0.34 1.02 0 0 Z " fill="#B8DBFF" transform="translate(207,70)"/>
<path d="M0 0 C0.94746094 -0.00773437 1.89492187 -0.01546875 2.87109375 -0.0234375 C5.93605109 0.43030074 7.21664804 1.42613837 9.5625 3.375 C10.2225 3.375 10.8825 3.375 11.5625 3.375 C11.8925 2.385 12.2225 1.395 12.5625 0.375 C14.5425 0.375 16.5225 0.375 18.5625 0.375 C18.5625 0.705 18.5625 1.035 18.5625 1.375 C17.78519531 1.43558594 17.00789063 1.49617188 16.20703125 1.55859375 C13.37507756 2.10967787 13.37507756 2.10967787 12.19921875 4.66015625 C11.88597656 5.57667969 11.57273438 6.49320312 11.25 7.4375 C10.92386719 8.35660156 10.59773438 9.27570313 10.26171875 10.22265625 C10.03097656 10.93292969 9.80023438 11.64320312 9.5625 12.375 C7.91742782 12.56906478 6.27140406 12.75507935 4.625 12.9375 C3.25021484 13.09412109 3.25021484 13.09412109 1.84765625 13.25390625 C1.09355469 13.29386719 0.33945313 13.33382812 -0.4375 13.375 C-1.4375 12.375 -1.4375 12.375 -1.5 8.8125 C-1.479375 7.678125 -1.45875 6.54375 -1.4375 5.375 C3.0175 6.365 3.0175 6.365 7.5625 7.375 C7.2325 6.055 6.9025 4.735 6.5625 3.375 C2.63953567 2.06734522 -0.29752433 2.1778583 -4.4375 2.375 C-6.93255962 4.87005962 -6.79698376 6.04828888 -7.0625 9.5 C-7.13726562 10.41007812 -7.21203125 11.32015625 -7.2890625 12.2578125 C-7.33804688 12.95648438 -7.38703125 13.65515625 -7.4375 14.375 C-7.7675 14.375 -8.0975 14.375 -8.4375 14.375 C-8.51864106 12.60492286 -8.57675505 10.83377902 -8.625 9.0625 C-8.65980469 8.07636719 -8.69460937 7.09023437 -8.73046875 6.07421875 C-8.4375 3.375 -8.4375 3.375 -7.265625 1.54296875 C-4.76260127 -0.0561853 -2.95379781 -0.0240472 0 0 Z " fill="#E2F0FF" transform="translate(202.4375,97.625)"/>
<path d="M0 0 C0.99 0.33 1.98 0.66 3 1 C3.25 3.75 3.25 3.75 3 7 C1.125 9.125 1.125 9.125 -1 11 C-2.23512079 13.13309192 -2.23512079 13.13309192 -3 15 C-4.99954746 15.04254356 -7.00041636 15.04080783 -9 15 C-10 14 -10 14 -10.125 10.5625 C-10 7 -10 7 -9 5 C-8.05125 4.690625 -7.1025 4.38125 -6.125 4.0625 C-3.15310098 3.05205433 -1.93911169 2.37002539 0 0 Z " fill="#BEDEFF" transform="translate(181,145)"/>
<path d="M0 0 C1.39456452 0.00667256 2.78911118 0.01863093 4.18359375 0.03515625 C4.89451172 0.03966797 5.60542969 0.04417969 6.33789062 0.04882812 C8.09899388 0.06064761 9.86005411 0.07858362 11.62109375 0.09765625 C11.66363731 2.09720371 11.66190158 4.09807261 11.62109375 6.09765625 C10.62109375 7.09765625 10.62109375 7.09765625 7.2421875 7.1953125 C5.84762298 7.18863994 4.45307632 7.17668157 3.05859375 7.16015625 C2.34767578 7.15564453 1.63675781 7.15113281 0.90429688 7.14648438 C-0.85680638 7.13466489 -2.61786661 7.11672888 -4.37890625 7.09765625 C-4.42144981 5.09810879 -4.41971408 3.09723989 -4.37890625 1.09765625 C-3.37890625 0.09765625 -3.37890625 0.09765625 0 0 Z " fill="#A4D1FF" transform="translate(230.37890625,132.90234375)"/>
<path d="M0 0 C1.0725 0.00515625 2.145 0.0103125 3.25 0.015625 C4.85875 0.00789063 4.85875 0.00789063 6.5 0 C9.25 0.265625 9.25 0.265625 11.25 2.265625 C11.25 3.915625 11.25 5.565625 11.25 7.265625 C6.3 7.265625 1.35 7.265625 -3.75 7.265625 C-4.08 5.615625 -4.41 3.965625 -4.75 2.265625 C-2.75 0.265625 -2.75 0.265625 0 0 Z " fill="#A8D3FF" transform="translate(250.75,69.734375)"/>
<path d="M0 0 C2.75 -0.3984375 2.75 -0.3984375 6 -0.375 C7.60875 -0.38660156 7.60875 -0.38660156 9.25 -0.3984375 C10.1575 -0.26695313 11.065 -0.13546875 12 0 C14 3 14 3 14 6 C11.11584117 7.44207941 8.58278472 7.09394887 5.375 7.0625 C4.18648437 7.05347656 2.99796875 7.04445313 1.7734375 7.03515625 C0.85820312 7.02355469 -0.05703125 7.01195313 -1 7 C-1.625 5.1875 -1.625 5.1875 -2 3 C-1.34 2.01 -0.68 1.02 0 0 Z " fill="#BBDCFF" transform="translate(186,70)"/>
<path d="M0 0 C-0.43365551 4.91476244 -2.47359778 7.63032676 -6 11 C-9.3125 11.375 -9.3125 11.375 -12 11 C-12 8.36 -12 5.72 -12 3 C-11.34 3 -10.68 3 -10 3 C-10 2.34 -10 1.68 -10 1 C-3.71428571 -1.42857143 -3.71428571 -1.42857143 0 0 Z " fill="#9FCEFF" transform="translate(161,83)"/>
<path d="M0 0 C1.629375 0.12375 3.25875 0.2475 4.9375 0.375 C5.85402344 0.44460937 6.77054687 0.51421875 7.71484375 0.5859375 C8.84599609 0.79089844 8.84599609 0.79089844 10 1 C10.33 1.66 10.66 2.32 11 3 C11.66 3.268125 12.32 3.53625 13 3.8125 C15 5 15 5 15.75 7.625 C15.87375 8.800625 15.87375 8.800625 16 10 C12.59783062 9.39246975 10.73127371 8.04845528 8 6 C5.85266073 5.29485154 5.85266073 5.29485154 4 5 C4 6.98 4 8.96 4 11 C2.68 11.33 1.36 11.66 0 12 C0 8.04 0 4.08 0 0 Z " fill="#6AB4FF" transform="translate(270,45)"/>
<path d="M0 0 C6.27 0 12.54 0 19 0 C17.68 0.33 16.36 0.66 15 1 C15 5.29 15 9.58 15 14 C14.67 14 14.34 14 14 14 C14 10.04 14 6.08 14 2 C12.35 2.33 10.7 2.66 9 3 C9 6.63 9 10.26 9 14 C8.01 14 7.02 14 6 14 C5.90203125 13.30132812 5.8040625 12.60265625 5.703125 11.8828125 C5.55359375 10.97273438 5.4040625 10.06265625 5.25 9.125 C5.11078125 8.22007813 4.9715625 7.31515625 4.828125 6.3828125 C4.22016157 3.83785757 4.22016157 3.83785757 1.921875 2.6796875 C1.28765625 2.45539063 0.6534375 2.23109375 0 2 C0 1.34 0 0.68 0 0 Z " fill="#9DCEFF" transform="translate(224,99)"/>
<path d="M0 0 C3.25 -0.3125 3.25 -0.3125 7 0 C9.3125 2.4375 9.3125 2.4375 11 5 C11.66 5.33 12.32 5.66 13 6 C13 7.98 13 9.96 13 12 C10.03 11.505 10.03 11.505 7 11 C6.67 10.01 6.34 9.02 6 8 C4.06669397 6.90833725 4.06669397 6.90833725 2 6 C1.34 5.34 0.68 4.68 0 4 C0 2.68 0 1.36 0 0 Z " fill="#A9D4FF" transform="translate(306,72)"/>
<path d="M0 0 C1.65 0 3.3 0 5 0 C5.12375 1.134375 5.2475 2.26875 5.375 3.4375 C5.684375 5.2009375 5.684375 5.2009375 6 7 C6.66 7.33 7.32 7.66 8 8 C8 9.32 8 10.64 8 12 C4.7 12.33 1.4 12.66 -2 13 C-2.26785714 3.89285714 -2.26785714 3.89285714 0 0 Z " fill="#74B9FF" transform="translate(215,100)"/>
<path d="M0 0 C2.475 0.99 2.475 0.99 5 2 C5 6.29 5 10.58 5 15 C3.35 15.33 1.7 15.66 0 16 C-1 15 -1 15 -1.1328125 12.12890625 C-1.13023438 10.95199219 -1.12765625 9.77507812 -1.125 8.5625 C-1.12757812 7.38816406 -1.13015625 6.21382812 -1.1328125 5.00390625 C-1 2 -1 2 0 0 Z " fill="#97CBFF" transform="translate(99,200)"/>
<path d="M0 0 C1.98 0 3.96 0 6 0 C6 4.62 6 9.24 6 14 C4.02 14 2.04 14 0 14 C0 9.38 0 4.76 0 0 Z " fill="#93C9FF" transform="translate(98,159)"/>
<path d="M0 0 C1.98 0 3.96 0 6 0 C6 4.62 6 9.24 6 14 C4.02 14 2.04 14 0 14 C0 9.38 0 4.76 0 0 Z " fill="#78BBFF" transform="translate(98,139)"/>
<path d="M0 0 C-0.32493615 3.5742977 -0.63870686 5.55712453 -2.9375 8.375 C-5 10 -5 10 -7 10 C-7 10.66 -7 11.32 -7 12 C-8.32 12 -9.64 12 -11 12 C-11.42999879 8.99000848 -11.57226998 6.85551471 -9.83984375 4.265625 C-6.77293893 0.97125153 -4.72547349 -0.83390709 0 0 Z " fill="#91C8FF" transform="translate(117,124)"/>
<path d="M0 0 C0.33 1.32 0.66 2.64 1 4 C-0.98 4.33 -2.96 4.66 -5 5 C-5.33 5.99 -5.66 6.98 -6 8 C-7.98 8.33 -9.96 8.66 -12 9 C-12 7.02 -12 5.04 -12 3 C-4.71428571 -1.71428571 -4.71428571 -1.71428571 0 0 Z " fill="#7BBDFF" transform="translate(199,135)"/>
<path d="M0 0 C-0.29899215 3.58790575 -0.76986601 4.78166776 -3.4375 7.3125 C-6 9 -6 9 -8 9 C-8 9.99 -8 10.98 -8 12 C-9.32 11.67 -10.64 11.34 -12 11 C-12.4375 8.875 -12.4375 8.875 -12 6 C-8.73128155 2.05722379 -5.36858972 -0.97610722 0 0 Z " fill="#7CBDFF" transform="translate(132,110)"/>
<path d="M0 0 C4.875 0.875 4.875 0.875 6 2 C6.07205511 3.68608966 6.08386068 5.37500659 6.0625 7.0625 C6.05347656 7.98160156 6.04445313 8.90070313 6.03515625 9.84765625 C6.02355469 10.55792969 6.01195312 11.26820312 6 12 C3.36 12 0.72 12 -2 12 C-2 10.68 -2 9.36 -2 8 C-1.34 8 -0.68 8 0 8 C0 5.36 0 2.72 0 0 Z " fill="#8EC6FF" transform="translate(269,64)"/>
<path d="M0 0 C1.65 0 3.3 0 5 0 C5 4.95 5 9.9 5 15 C3.35 15 1.7 15 0 15 C0 10.05 0 5.1 0 0 Z " fill="#8DC6FF" transform="translate(98,221)"/>
<path d="M0 0 C3 1 3 1 4 3 C4.07065617 5.04055005 4.08421976 7.08334257 4.0625 9.125 C4.05347656 10.22070312 4.04445312 11.31640625 4.03515625 12.4453125 C4.02355469 13.28835937 4.01195312 14.13140625 4 15 C2.35 15.33 0.7 15.66 -1 16 C-1.02685095 13.52076199 -1.04676547 11.0418116 -1.0625 8.5625 C-1.07506836 7.50192383 -1.07506836 7.50192383 -1.08789062 6.41992188 C-1.09653588 4.61306441 -1.05220011 2.80612397 -1 1 C-0.67 0.67 -0.34 0.34 0 0 Z " fill="#76BAFF" transform="translate(162,179)"/>
<path d="M0 0 C1.98 0.495 1.98 0.495 4 1 C4 5.62 4 10.24 4 15 C2.35 14.67 0.7 14.34 -1 14 C-1.02685938 11.85423363 -1.04633088 9.70837355 -1.0625 7.5625 C-1.07410156 6.36753906 -1.08570313 5.17257813 -1.09765625 3.94140625 C-1 1 -1 1 0 0 Z " fill="#75B9FF" transform="translate(162,221)"/>
<path d="M0 0 C0.99 0 1.98 0 3 0 C5.28062828 3.42094242 5.21925007 4.68187222 5.125 8.6875 C5.10695312 9.68136719 5.08890625 10.67523438 5.0703125 11.69921875 C5.03550781 12.83810547 5.03550781 12.83810547 5 14 C3.02 14.99 3.02 14.99 1 16 C0 15 0 15 -0.09765625 11.62109375 C-0.09098369 10.22652923 -0.07902532 8.83198257 -0.0625 7.4375 C-0.05798828 6.72658203 -0.05347656 6.01566406 -0.04882812 5.28320312 C-0.03700864 3.52209987 -0.01907263 1.76103964 0 0 Z " fill="#76BAFF" transform="translate(161,200)"/>
<path d="M0 0 C0.99 0 1.98 0 3 0 C3.33 0.99 3.66 1.98 4 3 C5.98 2.67 7.96 2.34 10 2 C10 2.99 10 3.98 10 5 C9.01 5 8.02 5 7 5 C7 5.66 7 6.32 7 7 C5.35 7 3.7 7 2 7 C2 8.32 2 9.64 2 11 C-1 13.25 -1 13.25 -4 15 C-3.690625 14.4225 -3.38125 13.845 -3.0625 13.25 C-2.07416636 11.15705816 -1.4831387 9.25464725 -1 7 C-2.65 7.33 -4.3 7.66 -6 8 C-6 7.01 -6 6.02 -6 5 C-4.02 4.67 -2.04 4.34 0 4 C0 2.68 0 1.36 0 0 Z " fill="#D6EAFF" transform="translate(289,147)"/>
<path d="M0 0 C0.4375 2.125 0.4375 2.125 0 5 C-2.02123353 7.48942887 -4.22353807 9.39378236 -7 11 C-9.9375 10.875 -9.9375 10.875 -12 10 C-11.66960927 6.91635318 -11.02342865 6.02152903 -8.6875 3.875 C-3.13333333 0 -3.13333333 0 0 0 Z " fill="#8AC4FF" transform="translate(304,140)"/>
<path d="M0 0 C1.65 0 3.3 0 5 0 C5 4.62 5 9.24 5 14 C3.35 14 1.7 14 0 14 C0 9.38 0 4.76 0 0 Z " fill="#6EB6FF" transform="translate(98,242)"/>
<path d="M0 0 C3 0.3125 3 0.3125 6 1 C7.48619895 3.97239791 7.13177009 6.69619578 7.125 10 C7.12757812 11.258125 7.13015625 12.51625 7.1328125 13.8125 C7 17 7 17 6 19 C3.69 19 1.38 19 -1 19 C-1.02683987 16.02077407 -1.04676037 13.04178705 -1.0625 10.0625 C-1.07087891 9.21236328 -1.07925781 8.36222656 -1.08789062 7.48632812 C-1.09111328 6.67744141 -1.09433594 5.86855469 -1.09765625 5.03515625 C-1.10289307 4.2862915 -1.10812988 3.53742676 -1.11352539 2.76586914 C-1 1 -1 1 0 0 Z M0 3 C0 7.95 0 12.9 0 18 C1.65 18 3.3 18 5 18 C5 13.05 5 8.1 5 3 C3.35 3 1.7 3 0 3 Z " fill="#CFE7FF" transform="translate(98,218)"/>
<path d="M0 0 C0.66 0 1.32 0 2 0 C1.67 1.98 1.34 3.96 1 6 C5.95 6 10.9 6 16 6 C15.34 4.35 14.68 2.7 14 1 C15.32 1.33 16.64 1.66 18 2 C18 3.65 18 5.3 18 7 C17.01 7 16.02 7 15 7 C14.67 7.99 14.34 8.98 14 10 C12.06318839 10.08107583 10.1254066 10.13922475 8.1875 10.1875 C7.10855469 10.22230469 6.02960938 10.25710937 4.91796875 10.29296875 C2 10 2 10 0.12890625 8.68359375 C-1.57853628 6.13720022 -1.25908287 3.97945301 -1 1 C-0.67 0.67 -0.34 0.34 0 0 Z " fill="#DEEEFF" transform="translate(184,70)"/>
<path d="M0 0 C1.65 0 3.3 0 5 0 C5 4.29 5 8.58 5 13 C3.35 13.33 1.7 13.66 0 14 C0 9.38 0 4.76 0 0 Z " fill="#71B7FF" transform="translate(161,242)"/>
<path d="M0 0 C2.33944736 0.28730055 4.6739143 0.61936779 7 1 C7.10823773 3.24893954 7.18569645 5.49937575 7.25 7.75 C7.29640625 9.00296875 7.3428125 10.2559375 7.390625 11.546875 C7 15 7 15 5.234375 17.453125 C3 19 3 19 -1 19 C-1.02683987 16.02077407 -1.04676037 13.04178705 -1.0625 10.0625 C-1.07087891 9.21236328 -1.07925781 8.36222656 -1.08789062 7.48632812 C-1.09111328 6.67744141 -1.09433594 5.86855469 -1.09765625 5.03515625 C-1.10289307 4.2862915 -1.10812988 3.53742676 -1.11352539 2.76586914 C-1 1 -1 1 0 0 Z M1 1 C-0.39156484 2.16277032 -0.39156484 2.16277032 -0.09765625 5.37890625 C-0.09098369 6.77347077 -0.07902532 8.16801743 -0.0625 9.5625 C-0.05798828 10.27341797 -0.05347656 10.98433594 -0.04882812 11.71679688 C-0.03700864 13.47790013 -0.01907263 15.23896036 0 17 C1.65 16.67 3.3 16.34 5 16 C5.05406122 14.06280622 5.09282025 12.12518079 5.125 10.1875 C5.14820313 9.10855469 5.17140625 8.02960938 5.1953125 6.91796875 C5.23023717 3.80597132 5.23023717 3.80597132 3 1 C2.34 1 1.68 1 1 1 Z " fill="#CEE6FF" transform="translate(161,178)"/>
<path d="M0 0 C4.29 0 8.58 0 13 0 C13 1.65 13 3.3 13 5 C8.71 5 4.42 5 0 5 C-0.33 4.01 -0.66 3.02 -1 2 C-0.67 1.34 -0.34 0.68 0 0 Z " fill="#83C1FF" transform="translate(248,134)"/>
<path d="M0 0 C1.50433594 0.01353516 1.50433594 0.01353516 3.0390625 0.02734375 C3.80992187 0.03894531 4.58078125 0.05054687 5.375 0.0625 C5.375 1.7125 5.375 3.3625 5.375 5.0625 C-1.06 5.5575 -1.06 5.5575 -7.625 6.0625 C-7.625 4.4125 -7.625 2.7625 -7.625 1.0625 C-4.98041621 -0.25979189 -2.94738699 -0.03427194 0 0 Z " fill="#7ABCFF" transform="translate(172.625,71.9375)"/>
<path d="M0 0 C1.27259511 0.45341868 2.54301243 0.91295227 3.8125 1.375 C4.52019531 1.63023438 5.22789062 1.88546875 5.95703125 2.1484375 C8 3 8 3 11 5 C10.67 6.65 10.34 8.3 10 10 C7.875 10.4375 7.875 10.4375 5 10 C2.60411783 7.95580695 0.56181132 5.74197701 -1 3 C-0.67 2.01 -0.34 1.02 0 0 Z " fill="#64B1FF" transform="translate(325,87)"/>
<path d="M0 0 C1.32 0 2.64 0 4 0 C4 0.66 4 1.32 4 2 C5.32 2 6.64 2 8 2 C8.02685095 4.47923801 8.04676547 6.9581884 8.0625 9.4375 C8.07087891 10.14455078 8.07925781 10.85160156 8.08789062 11.58007812 C8.09653588 13.38693559 8.05220011 15.19387603 8 17 C7 18 7 18 4 18.125 C1 18 1 18 0 17 C-0.07325168 14.13732433 -0.09238205 11.299281 -0.0625 8.4375 C-0.05798828 7.63119141 -0.05347656 6.82488281 -0.04882812 5.99414062 C-0.03700518 3.99606244 -0.01906914 1.99802217 0 0 Z M2 2 C0.66098208 3.11126659 0.66098208 3.11126659 0.90234375 5.94140625 C0.91394531 7.13636719 0.92554688 8.33132812 0.9375 9.5625 C0.94652344 10.76003906 0.95554688 11.95757812 0.96484375 13.19140625 C0.97644531 14.11824219 0.98804688 15.04507813 1 16 C3.475 16.495 3.475 16.495 6 17 C6 12.38 6 7.76 6 3 C4.68 2.67 3.36 2.34 2 2 Z " fill="#D3E9FF" transform="translate(160,219)"/>
<path d="M0 0 C1.79158489 -0.02696365 3.58328473 -0.04637917 5.375 -0.0625 C6.37273437 -0.07410156 7.37046875 -0.08570313 8.3984375 -0.09765625 C11 0 11 0 13 1 C13 2.32 13 3.64 13 5 C8.71 5 4.42 5 0 5 C0 3.35 0 1.7 0 0 Z " fill="#68B3FF" transform="translate(207,134)"/>
<path d="M0 0 C-0.99 3.63 -1.98 7.26 -3 11 C-4.65 11.33 -6.3 11.66 -8 12 C-8.08131463 10.56344146 -8.13933559 9.1255517 -8.1875 7.6875 C-8.22230469 6.88699219 -8.25710937 6.08648437 -8.29296875 5.26171875 C-8 3 -8 3 -6.80078125 1.20703125 C-5 0 -5 0 0 0 Z " fill="#5AACFF" transform="translate(169,162)"/>
<path d="M0 0 C1.11375 0.1546875 1.11375 0.1546875 2.25 0.3125 C2.58 1.6325 2.91 2.9525 3.25 4.3125 C1.98608512 5.32123016 0.71359117 6.31921822 -0.5625 7.3125 C-1.62404297 8.1478125 -1.62404297 8.1478125 -2.70703125 9 C-4.75 10.3125 -4.75 10.3125 -7.75 10.3125 C-7.17805721 5.30800055 -5.48471867 0.62326349 0 0 Z " fill="#6FB6FF" transform="translate(331.75,112.6875)"/>
<path d="M0 0 C0.99 0 1.98 0 3 0 C3 0.66 3 1.32 3 2 C3.66 2 4.32 2 5 2 C5 5.63 5 9.26 5 13 C3.35 13 1.7 13 0 13 C0 8.71 0 4.42 0 0 Z " fill="#6BB4FF" transform="translate(98,180)"/>
<path d="M0 0 C1.65 0 3.3 0 5 0 C7 2 7 2 7.3125 4.4375 C7 7 7 7 5.75 8.8125 C4 10 4 10 0 10 C0 6.7 0 3.4 0 0 Z " fill="#69B4FF" transform="translate(339,100)"/>
<path d="M0 0 C3.69230769 0.69230769 3.69230769 0.69230769 5 2 C5.14115161 4.67058851 5.04247107 7.32432238 5 10 C3.34385343 10.38218767 1.67542976 10.71395102 0 11 C-1 10 -1 10 -1.1328125 7.96875 C-1.13023437 7.1540625 -1.12765625 6.339375 -1.125 5.5 C-1.12757813 4.6853125 -1.13015625 3.870625 -1.1328125 3.03125 C-1 1 -1 1 0 0 Z " fill="#83C1FF" transform="translate(270,134)"/>
<path d="M0 0 C0 0.99 0 1.98 0 3 C-0.66 3 -1.32 3 -2 3 C-2.268125 3.598125 -2.53625 4.19625 -2.8125 4.8125 C-4.00987475 7.01819033 -5.04478984 8.43583187 -7 10 C-7.99 10 -8.98 10 -10 10 C-10 8.35 -10 6.7 -10 5 C-9.34 5 -8.68 5 -8 5 C-7.731875 4.360625 -7.46375 3.72125 -7.1875 3.0625 C-5.37365074 -0.08786977 -3.47812867 0 0 0 Z " fill="#63B0FF" transform="translate(146,96)"/>
<path d="M0 0 C-0.144375 0.66 -0.28875 1.32 -0.4375 2 C-1.12299916 5.65599551 -1.56175515 9.30622195 -2 13 C-3.97746603 13.73080266 -5.98072489 14.39421747 -8 15 C-8.66 14.67 -9.32 14.34 -10 14 C-10.08114106 12.22992286 -10.13925505 10.45877902 -10.1875 8.6875 C-10.22230469 7.70136719 -10.25710937 6.71523437 -10.29296875 5.69921875 C-10 3 -10 3 -8.71875 1.15625 C-5.95246295 -0.70470674 -3.22735087 -0.18268024 0 0 Z M-7.80078125 2.20703125 C-9.34617241 4.51756722 -9.30727364 5.93270631 -9.1875 8.6875 C-9.16042969 9.49574219 -9.13335937 10.30398437 -9.10546875 11.13671875 C-9.07066406 11.75160156 -9.03585938 12.36648437 -9 13 C-7.35 12.67 -5.7 12.34 -4 12 C-3.01 8.37 -2.02 4.74 -1 1 C-5.6690966 0.53601871 -5.6690966 0.53601871 -7.80078125 2.20703125 Z " fill="#AFD7FF" transform="translate(170,161)"/>
<path d="M0 0 C0.66 0 1.32 0 2 0 C1.72712269 4.63891425 -0.29357326 6.7350467 -3.4296875 9.86328125 C-5 11 -5 11 -8 11 C-7.125 6.25 -7.125 6.25 -6 4 C-5.01 3.67 -4.02 3.34 -3 3 C-2.484375 2.484375 -1.96875 1.96875 -1.4375 1.4375 C-0.963125 0.963125 -0.48875 0.48875 0 0 Z " fill="#67B3FF" transform="translate(181,147)"/>
<path d="M0 0 C0.90105469 0.00902344 1.80210937 0.01804687 2.73046875 0.02734375 C3.41753906 0.03894531 4.10460937 0.05054687 4.8125 0.0625 C5.1425 1.3825 5.4725 2.7025 5.8125 4.0625 C1.1925 4.0625 -3.4275 4.0625 -8.1875 4.0625 C-8.1875 3.0725 -8.1875 2.0825 -8.1875 1.0625 C-5.17259443 0.05753148 -3.14568308 -0.04085303 0 0 Z " fill="#62B0FF" transform="translate(255.1875,71.9375)"/>
<path d="M0 0 C3.96 0 7.92 0 12 0 C12 1.32 12 2.64 12 4 C7.71 4 3.42 4 -1 4 C-0.67 2.68 -0.34 1.36 0 0 Z " fill="#65B1FF" transform="translate(228,72)"/>
<path d="M0 0 C0.375 2.1875 0.375 2.1875 0 5 C-2.75 7.8125 -2.75 7.8125 -6 10 C-7.32 10 -8.64 10 -10 10 C-9.43867066 6.4628562 -8.30442253 5.00738321 -5.5625 2.75 C-4.94503906 2.22921875 -4.32757813 1.7084375 -3.69140625 1.171875 C-2 0 -2 0 0 0 Z " fill="#67B2FF" transform="translate(318,126)"/>
<path d="M0 0 C4.01279188 0.6173526 6.85490358 2.49821876 10 5 C10 6.32 10 7.64 10 9 C5.25 8.125 5.25 8.125 3 7 C3 6.34 3 5.68 3 5 C2.01 4.67 1.02 4.34 0 4 C0 2.68 0 1.36 0 0 Z " fill="#62B0FF" transform="translate(293,60)"/>
<path d="M0 0 C2.31 0.66 4.62 1.32 7 2 C7 7.28 7 12.56 7 18 C4.69 18 2.38 18 0 18 C-1.7462388 16.2537612 -1.13221151 14.00121676 -1.13671875 11.67773438 C-1.13285156 10.97970703 -1.12898438 10.28167969 -1.125 9.5625 C-1.12886719 8.86833984 -1.13273437 8.17417969 -1.13671875 7.45898438 C-1.12663994 2.25327988 -1.12663994 2.25327988 0 0 Z M0 3 C0 7.62 0 12.24 0 17 C1.98 17 3.96 17 6 17 C6 12.38 6 7.76 6 3 C4.02 3 2.04 3 0 3 Z " fill="#D3E9FF" transform="translate(98,136)"/>
<path d="M0 0 C1.32 0 2.64 0 4 0 C4 3.63 4 7.26 4 11 C3.01 11.495 3.01 11.495 2 12 C1.34 11.67 0.68 11.34 0 11 C0 7.37 0 3.74 0 0 Z " fill="#5AACFF" transform="translate(271,154)"/>
<path d="M0 0 C2 1.25 2 1.25 4 3 C4 4.32 4 5.64 4 7 C0.66666667 7 -2.66666667 7 -6 7 C-6 5.02 -6 3.04 -6 1 C-4.68 1 -3.36 1 -2 1 C-1.67 2.32 -1.34 3.64 -1 5 C-0.67 3.35 -0.34 1.7 0 0 Z " fill="#AAD4FF" transform="translate(249,107)"/>
<path d="M0 0 C3.3 0 6.6 0 10 0 C9.01 0.33 8.02 0.66 7 1 C7 4.96 7 8.92 7 13 C6.34 13 5.68 13 5 13 C4.89042969 12.31292969 4.78085938 11.62585938 4.66796875 10.91796875 C4.50941406 10.01691406 4.35085937 9.11585937 4.1875 8.1875 C4.03667969 7.29417969 3.88585937 6.40085937 3.73046875 5.48046875 C3.10498523 2.6264325 3.10498523 2.6264325 0 0 Z " fill="#6DB5FF" transform="translate(225,100)"/>
<path d="M0 0 C1.67542976 0.28604898 3.34385343 0.61781233 5 1 C5 2.98 5 4.96 5 7 C3.34385343 7.38218767 1.67542976 7.71395102 0 8 C-1 7 -1 7 -1.125 4 C-1 1 -1 1 0 0 Z " fill="#EAF3FD" transform="translate(89,144)"/>
<path d="M0 0 C0.66 1.65 1.32 3.3 2 5 C0.35 4.67 -1.3 4.34 -3 4 C-2.5359375 4.928125 -2.5359375 4.928125 -2.0625 5.875 C-1.375 7.25 -0.6875 8.625 0 10 C-2.49361571 8.79618552 -4.68143083 7.54571278 -7 6 C-7.1875 3.375 -7.1875 3.375 -7 1 C-4.53721199 -0.231394 -2.7204945 -0.07159196 0 0 Z " fill="#CDE6FF" transform="translate(328,84)"/>
<path d="M0 0 C1.76462683 3.08809695 2 4.23312136 2 8 C2.66 8.33 3.32 8.66 4 9 C3.01 9 2.02 9 1 9 C0.67 7.68 0.34 6.36 0 5 C-2.31 5 -4.62 5 -7 5 C-7 3.68 -7 2.36 -7 1 C-4 0 -4 0 0 0 Z " fill="#62B0FF" transform="translate(247,103)"/>
<path d="M0 0 C0.5775 0.2475 1.155 0.495 1.75 0.75 C0.4675023 3.61095641 -0.70343989 5.86365918 -3.25 7.75 C-5.9375 7.9375 -5.9375 7.9375 -8.25 7.75 C-6.64613593 4.0076505 -4.56199942 -0.50688882 0 0 Z " fill="#65B1FF" transform="translate(159.25,82.25)"/>
<path d="M0 0 C1.2065625 0.0309375 1.2065625 0.0309375 2.4375 0.0625 C3.53256492 3.34769475 3.53710608 5.79913415 3.5 9.25 C3.49097656 10.33667969 3.48195312 11.42335937 3.47265625 12.54296875 C3.46105469 13.37441406 3.44945312 14.20585937 3.4375 15.0625 C3.1075 15.0625 2.7775 15.0625 2.4375 15.0625 C2.37691406 14.37542969 2.31632813 13.68835938 2.25390625 12.98046875 C2.17011719 12.07941406 2.08632812 11.17835938 2 10.25 C1.91878906 9.35667969 1.83757812 8.46335938 1.75390625 7.54296875 C1.50260233 4.93506441 1.50260233 4.93506441 0.4375 2.0625 C-0.5525 2.0625 -1.5425 2.0625 -2.5625 2.0625 C-2.5625 6.3525 -2.5625 10.6425 -2.5625 15.0625 C-2.8925 15.0625 -3.2225 15.0625 -3.5625 15.0625 C-3.58935412 12.75006208 -3.60882841 10.4375373 -3.625 8.125 C-3.63660156 6.83722656 -3.64820313 5.54945313 -3.66015625 4.22265625 C-3.53232863 0.08615436 -3.53232863 0.08615436 0 0 Z " fill="#C0DFFF" transform="translate(163.5625,197.9375)"/>
<path d="M0 0 C1.65 0 3.3 0 5 0 C5 1.65 5 3.3 5 5 C5.99 5.33 6.98 5.66 8 6 C8.66 9.3 9.32 12.6 10 16 C8.68 16 7.36 16 6 16 C5.67 15.01 5.34 14.02 5 13 C5.66 13 6.32 13 7 13 C7 11.68 7 10.36 7 9 C6.01 8.67 5.02 8.34 4 8 C4 5.69 4 3.38 4 1 C2.68 0.67 1.36 0.34 0 0 Z " fill="#92C8FF" transform="translate(216,99)"/>
<path d="M0 0 C1.32 0.33 2.64 0.66 4 1 C4 2.32 4 3.64 4 5 C0.37471432 5.20140476 -1.86501708 4.85776765 -5 3 C-5 5.31 -5 7.62 -5 10 C-5.66 10 -6.32 10 -7 10 C-6.67 7.36 -6.34 4.72 -6 2 C-4.02 2 -2.04 2 0 2 C0 1.34 0 0.68 0 0 Z " fill="#A6D2FF" transform="translate(206,100)"/>
<path d="M0 0 C0.99 0.33 1.98 0.66 3 1 C2.25 5.75 2.25 5.75 0 8 C-3.2578125 8.1953125 -3.2578125 8.1953125 -7.125 8.125 C-9.04699219 8.09792969 -9.04699219 8.09792969 -11.0078125 8.0703125 C-12.48894531 8.03550781 -12.48894531 8.03550781 -14 8 C-14 7.67 -14 7.34 -14 7 C-9.59085217 5.89771304 -5.51617599 5.92345464 -1 6 C-1 5.34 -1 4.68 -1 4 C-0.34 4 0.32 4 1 4 C0.67 2.68 0.34 1.36 0 0 Z " fill="#E5F1FF" transform="translate(179,72)"/>
<path d="M0 0 C2.875 -0.125 2.875 -0.125 6 0 C8 2 8 2 8.23046875 4.56640625 C8.20919922 6.04947266 8.20919922 6.04947266 8.1875 7.5625 C8.17783203 9.04943359 8.17783203 9.04943359 8.16796875 10.56640625 C8 13 8 13 7 14 C5.33382885 14.04063832 3.66611905 14.042721 2 14 C2 13.34 2 12.68 2 12 C3.32 11.67 4.64 11.34 6 11 C6 8.36 6 5.72 6 3 C4.68 2.67 3.36 2.34 2 2 C1.34 3.32 0.68 4.64 0 6 C-1 3 -1 3 0 0 Z " fill="#B3D9FF" transform="translate(268,133)"/>
<path d="M0 0 C3 0 3 0 4.6875 1.5625 C6.43416783 4.80631168 6.20922503 7.37343285 6 11 C5.01 10.67 4.02 10.34 3 10 C2.6278958 8.67696283 2.29369827 7.34262065 2 6 C1.34 5.67 0.68 5.34 0 5 C0 3.35 0 1.7 0 0 Z " fill="#E1F0FF" transform="translate(221,99)"/>
<path d="M0 0 C1.98 0 3.96 0 6 0 C6 0.66 6 1.32 6 2 C4.68 2 3.36 2 2 2 C2 5.3 2 8.6 2 12 C3.65 11.67 5.3 11.34 7 11 C7 11.66 7 12.32 7 13 C5.00045254 13.04254356 2.99958364 13.04080783 1 13 C0 12 0 12 -0.09765625 9.27734375 C-0.08605469 8.17519531 -0.07445312 7.07304688 -0.0625 5.9375 C-0.05347656 4.83277344 -0.04445313 3.72804688 -0.03515625 2.58984375 C-0.02355469 1.73519531 -0.01195312 0.88054687 0 0 Z " fill="#B9DCFF" transform="translate(337,98)"/>
<path d="M0 0 C0.99 0 1.98 0 3 0 C3 3.96 3 7.92 3 12 C2.01 12.33 1.02 12.66 0 13 C0 8.71 0 4.42 0 0 Z " fill="#58ABFF" transform="translate(99,160)"/>
<path d="M0 0 C3.96 0 7.92 0 12 0 C12 0.99 12 1.98 12 3 C8.04 3 4.08 3 0 3 C0 2.01 0 1.02 0 0 Z " fill="#56AAFF" transform="translate(228,135)"/>
<path d="M0 0 C1.62490954 -0.02698189 3.24994633 -0.04638757 4.875 -0.0625 C5.77992188 -0.07410156 6.68484375 -0.08570312 7.6171875 -0.09765625 C10 0 10 0 12 1 C12 1.66 12 2.32 12 3 C7.71 3 3.42 3 -1 3 C-0.67 2.01 -0.34 1.02 0 0 Z " fill="#63B0FF" transform="translate(208,73)"/>
<path d="M0 0 C-0.5590888 3.24271506 -1.4132178 4.93057424 -4 7 C-4.66 7 -5.32 7 -6 7 C-6 7.66 -6 8.32 -6 9 C-6.66 9 -7.32 9 -8 9 C-7.64598897 5.81390075 -7.16972964 4.20933322 -5.125 1.6875 C-3 0 -3 0 0 0 Z " fill="#5AACFF" transform="translate(115,126)"/>
<path d="M0 0 C1.65 0 3.3 0 5 0 C5.66 1.65 6.32 3.3 7 5 C7.66 5 8.32 5 9 5 C8.67 5.99 8.34 6.98 8 8 C4.97009905 6.28032649 2.23672704 4.70761694 0 2 C0 1.34 0 0.68 0 0 Z " fill="#5CADFF" transform="translate(308,74)"/>
<path d="M0 0 C0.99 0 1.98 0 3 0 C3.02698189 1.62490954 3.04638757 3.24994633 3.0625 4.875 C3.07410156 5.77992188 3.08570312 6.68484375 3.09765625 7.6171875 C3 10 3 10 2 12 C1.34 12 0.68 12 0 12 C0 8.04 0 4.08 0 0 Z " fill="#58ABFF" transform="translate(99,223)"/>
<path d="M0 0 C0.99 0.33 1.98 0.66 3 1 C3 4.3 3 7.6 3 11 C2.01 11.33 1.02 11.66 0 12 C0 8.04 0 4.08 0 0 Z " fill="#5AACFF" transform="translate(99,202)"/>
<path d="M0 0 C0.33 1.32 0.66 2.64 1 4 C-2.87564767 7.61139896 -2.87564767 7.61139896 -5 9 C-7.375 8.8125 -7.375 8.8125 -9 8 C-7.625 6.5 -7.625 6.5 -6 5 C-5.34 5 -4.68 5 -4 5 C-4 4.01 -4 3.02 -4 2 C-2.68 1.34 -1.36 0.68 0 0 Z " fill="#5EAEFF" transform="translate(302,140)"/>
<path d="M0 0 C3.625 -0.1875 3.625 -0.1875 7 0 C7 0.66 7 1.32 7 2 C5.02 2 3.04 2 1 2 C1 2.99 1 3.98 1 5 C0.34 5 -0.32 5 -1 5 C-1 6.65 -1 8.3 -1 10 C-1.66 10 -2.32 10 -3 10 C-2.25 3.375 -2.25 3.375 0 0 Z " fill="#6EB6FF" transform="translate(199,100)"/>
<path d="M0 0 C3.3 0 6.6 0 10 0 C10 0.99 10 1.98 10 3 C6.7 3 3.4 3 0 3 C0 2.01 0 1.02 0 0 Z " fill="#62B0FF" transform="translate(188,73)"/>
<path d="M0 0 C0 3.96 0 7.92 0 12 C-0.99 11.67 -1.98 11.34 -3 11 C-3 7.7 -3 4.4 -3 1 C-1 0 -1 0 0 0 Z " fill="#E2F0FF" transform="translate(269,44)"/>
<path d="M0 0 C0.33 0.99 0.66 1.98 1 3 C0.01 3.33 -0.98 3.66 -2 4 C-2 4.66 -2 5.32 -2 6 C-3.3125 7.625 -3.3125 7.625 -5 9 C-5.99 9 -6.98 9 -8 9 C-6.64531705 4.12314139 -4.28324091 2.51407619 0 0 Z " fill="#57AAFF" transform="translate(285,155)"/>
<path d="M0 0 C3.3 0 6.6 0 10 0 C10 0.99 10 1.98 10 3 C6.37 3 2.74 3 -1 3 C-0.67 2.01 -0.34 1.02 0 0 Z " fill="#56A9FF" transform="translate(250,135)"/>
<path d="M0 0 C1.953125 0.6796875 1.953125 0.6796875 4 2 C4.609375 4.3828125 4.609375 4.3828125 4.75 7.125 C4.80671875 8.03507812 4.8634375 8.94515625 4.921875 9.8828125 C4.94765625 10.58148438 4.9734375 11.28015625 5 12 C5.66 12 6.32 12 7 12 C7 12.66 7 13.32 7 14 C6.01 14 5.02 14 4 14 C2.19266201 10.02385643 1.56976841 6.31396079 1 2 C0.67 1.34 0.34 0.68 0 0 Z " fill="#A3D1FF" transform="translate(225,101)"/>
<path d="M0 0 C1.98 0 3.96 0 6 0 C6.21776233 3.19384754 6.28983481 5.40422845 4.875 8.3125 C2.37679172 10.56088745 0.29051193 10.70751005 -3 11 C-0.9859524 7.9789286 0.63279613 6.39332574 4 5 C4 4.01 4 3.02 4 2 C2.68 1.34 1.36 0.68 0 0 Z " fill="#C5E1FF" transform="translate(330,112)"/>
<path d="M0 0 C1.66611905 -0.042721 3.33382885 -0.04063832 5 0 C6 1 6 1 6.0625 4.0625 C6.041875 5.031875 6.02125 6.00125 6 7 C5.67 5.68 5.34 4.36 5 3 C4.071875 3.309375 3.14375 3.61875 2.1875 3.9375 C0.125 4.625 -1.9375 5.3125 -4 6 C-4 5.01 -4 4.02 -4 3 C-3.01 2.67 -2.02 2.34 -1 2 C-0.67 1.34 -0.34 0.68 0 0 Z " fill="#D6EAFF" transform="translate(127,107)"/>
<path d="M0 0 C1.37478516 0.01740234 1.37478516 0.01740234 2.77734375 0.03515625 C3.69644531 0.04417969 4.61554688 0.05320312 5.5625 0.0625 C6.27277344 0.07410156 6.98304688 0.08570312 7.71484375 0.09765625 C7.71484375 0.42765625 7.71484375 0.75765625 7.71484375 1.09765625 C3.25984375 1.59265625 3.25984375 1.59265625 -1.28515625 2.09765625 C-1.28515625 2.42765625 -1.28515625 2.75765625 -1.28515625 3.09765625 C2.01484375 3.42765625 5.31484375 3.75765625 8.71484375 4.09765625 C8.71484375 4.42765625 8.71484375 4.75765625 8.71484375 5.09765625 C4.42484375 5.09765625 0.13484375 5.09765625 -4.28515625 5.09765625 C-3.0432556 0.13005366 -3.0432556 0.13005366 0 0 Z " fill="#91C7FF" transform="translate(189.28515625,71.90234375)"/>
<path d="M0 0 C0 2.31 0 4.62 0 7 C-1.65 6.67 -3.3 6.34 -5 6 C-5 4.35 -5 2.7 -5 1 C-2 0 -2 0 0 0 Z " fill="#E5F2FF" transform="translate(206,133)"/>
<path d="M0 0 C1.32 0.33 2.64 0.66 4 1 C4.33 2.65 4.66 4.3 5 6 C5.99 6 6.98 6 8 6 C8.33 5.34 8.66 4.68 9 4 C9 4.99 9 5.98 9 7 C5.37 7 1.74 7 -2 7 C-0.68 6.67 0.64 6.34 2 6 C1.34 4.02 0.68 2.04 0 0 Z " fill="#BCDDFF" transform="translate(224,109)"/>
<path d="M0 0 C4.62 0 9.24 0 14 0 C13.67 0.99 13.34 1.98 13 3 C9.04 3 5.08 3 1 3 C0.67 2.01 0.34 1.02 0 0 Z " fill="#E8F3FF" transform="translate(206,77)"/>
<path d="M0 0 C1.32 0 2.64 0 4 0 C4 0.66 4 1.32 4 2 C3.01 2.495 3.01 2.495 2 3 C1.94613371 5.12472576 1.90726929 7.24983652 1.875 9.375 C1.85179687 10.55835938 1.82859375 11.74171875 1.8046875 12.9609375 C1.67133771 16.11153817 1.67133771 16.11153817 4 18 C2.68 17.67 1.36 17.34 0 17 C0 11.39 0 5.78 0 0 Z " fill="#C0DFFF" transform="translate(160,219)"/>
<path d="M0 0 C0.33 1.32 0.66 2.64 1 4 C3.31 4 5.62 4 8 4 C8 4.99 8 5.98 8 7 C4.625 7.125 4.625 7.125 1 7 C0.34 6.34 -0.32 5.68 -1 5 C-0.625 2.375 -0.625 2.375 0 0 Z " fill="#E1EFFF" transform="translate(305,133)"/>
<path d="M0 0 C0.804375 0.495 0.804375 0.495 1.625 1 C6.07053235 2.87180309 10.41564669 2.07867137 15 1 C15 1.66 15 2.32 15 3 C15.99 3.33 16.98 3.66 18 4 C15.56131832 4.1079859 13.12740867 4.18726589 10.6875 4.25 C9.99720703 4.28351563 9.30691406 4.31703125 8.59570312 4.3515625 C6.57421875 4.390625 6.57421875 4.390625 3 4 C1.01953125 1.984375 1.01953125 1.984375 0 0 Z " fill="#AFD7FF" transform="translate(196,112)"/>
<path d="M0 0 C3.96 0.33 7.92 0.66 12 1 C9 4 9 4 6 4.3125 C3 4 3 4 0 2 C0 1.34 0 0.68 0 0 Z " fill="#E7F2FF" transform="translate(246,76)"/>
<path d="M0 0 C2.475 0.99 2.475 0.99 5 2 C5 3.98 5 5.96 5 8 C2.03 7.505 2.03 7.505 -1 7 C-1 6.01 -1 5.02 -1 4 C-0.01 4.33 0.98 4.66 2 5 C2.33 4.34 2.66 3.68 3 3 C2.34 3 1.68 3 1 3 C0.67 2.01 0.34 1.02 0 0 Z " fill="#92C8FF" transform="translate(314,76)"/>
<path d="M0 0 C0.33 0 0.66 0 1 0 C1 2.31 1 4.62 1 7 C1.66 7 2.32 7 3 7 C3.12375 6.195625 3.2475 5.39125 3.375 4.5625 C3.58125 3.716875 3.7875 2.87125 4 2 C4.66 1.67 5.32 1.34 6 1 C5.67 3.31 5.34 5.62 5 8 C3.35 8.33 1.7 8.66 0 9 C0 6.03 0 3.06 0 0 Z " fill="#86C2FF" transform="translate(161,165)"/>
<path d="M0 0 C0.66 0 1.32 0 2 0 C2 0.66 2 1.32 2 2 C1.34 2 0.68 2 0 2 C0 3.98 0 5.96 0 8 C1.98 7.67 3.96 7.34 6 7 C6 7.99 6 8.98 6 10 C3.69 10 1.38 10 -1 10 C-1.02689216 8.52093108 -1.04634621 7.04172517 -1.0625 5.5625 C-1.07410156 4.73878906 -1.08570313 3.91507813 -1.09765625 3.06640625 C-1 1 -1 1 0 0 Z " fill="#DAECFF" transform="translate(187,136)"/>
<path d="M0 0 C1.32 0 2.64 0 4 0 C3.67 2.64 3.34 5.28 3 8 C2.34 7.67 1.68 7.34 1 7 C1 6.01 1 5.02 1 4 C-0.32 3.67 -1.64 3.34 -3 3 C-2.67 2.34 -2.34 1.68 -2 1 C-1.34 1.33 -0.68 1.66 0 2 C0 1.34 0 0.68 0 0 Z " fill="#8AC4FF" transform="translate(246,99)"/>
<path d="M0 0 C0 0.33 0 0.66 0 1 C-2.31 1 -4.62 1 -7 1 C-8.80317221 4.96697886 -9.49202991 8.6822542 -10 13 C-10.33 13 -10.66 13 -11 13 C-11.08121924 11.39667209 -11.13929134 9.79215974 -11.1875 8.1875 C-11.22230469 7.29417969 -11.25710937 6.40085937 -11.29296875 5.48046875 C-11 3 -11 3 -9.75 1.1875 C-6.65083803 -0.91550277 -3.64934583 -0.17947602 0 0 Z " fill="#A1D0FF" transform="translate(206,99)"/>
<path d="M0 0 C0.99 0 1.98 0 3 0 C3 2.97 3 5.94 3 9 C2.01 9 1.02 9 0 9 C0 6.03 0 3.06 0 0 Z " fill="#57AAFF" transform="translate(270,66)"/>
<path d="M0 0 C1.32 0.33 2.64 0.66 4 1 C4 3.31 4 5.62 4 8 C3.01 8 2.02 8 1 8 C0.67 5.36 0.34 2.72 0 0 Z " fill="#54A9FF" transform="translate(270,136)"/>
<path d="M0 0 C1.32 0.33 2.64 0.66 4 1 C0.7 3.31 -2.6 5.62 -6 8 C-6 5 -6 5 -4 2 C-2.68 2 -1.36 2 0 2 C0 1.34 0 0.68 0 0 Z " fill="#B6DAFF" transform="translate(299,139)"/>
<path d="M0 0 C0.33 0.99 0.66 1.98 1 3 C0.01 3.33 -0.98 3.66 -2 4 C-2.33 4.99 -2.66 5.98 -3 7 C-4.1875 8.6875 -4.1875 8.6875 -6 10 C-9.1875 10.1875 -9.1875 10.1875 -12 10 C-12 9.67 -12 9.34 -12 9 C-10.35 9 -8.7 9 -7 9 C-6.7525 8.21625 -6.505 7.4325 -6.25 6.625 C-4.8175952 3.61694992 -3.9690761 3.24509643 -1 2 C-0.67 1.34 -0.34 0.68 0 0 Z " fill="#E5F2FF" transform="translate(147,99)"/>
<path d="M0 0 C1.32 0.33 2.64 0.66 4 1 C3.34 1.66 2.68 2.32 2 3 C1.01 3 0.02 3 -1 3 C-1 4.98 -1 6.96 -1 9 C0.98 8.67 2.96 8.34 5 8 C4.67 8.66 4.34 9.32 4 10 C2.02 10 0.04 10 -2 10 C-2 7.36 -2 4.72 -2 2 C-1.34 2 -0.68 2 0 2 C0 1.34 0 0.68 0 0 Z " fill="#CBE4FF" transform="translate(151,84)"/>
<path d="M0 0 C0.93423645 3.01031744 1.04449911 3.86650268 0 7 C-1.32 6.34 -2.64 5.68 -4 5 C-4.33 5.66 -4.66 6.32 -5 7 C-5 5.02 -5 3.04 -5 1 C-3.35 0.67 -1.7 0.34 0 0 Z " fill="#EBF5FF" transform="translate(274,57)"/>
<path d="M0 0 C0.33 0 0.66 0 1 0 C1 2.31 1 4.62 1 7 C-0.97746603 7.73080266 -2.98072489 8.39421747 -5 9 C-5.66 8.67 -6.32 8.34 -7 8 C-6.67 7.34 -6.34 6.68 -6 6 C-4.68 6 -3.36 6 -2 6 C-1.34 4.02 -0.68 2.04 0 0 Z " fill="#D5EAFF" transform="translate(167,167)"/>
<path d="M0 0 C0.99 0 1.98 0 3 0 C3 1.98 3 3.96 3 6 C4.32 6.33 5.64 6.66 7 7 C5.00045254 7.04254356 2.99958364 7.04080783 1 7 C0 6 0 6 -0.0625 2.9375 C-0.041875 1.968125 -0.02125 0.99875 0 0 Z " fill="#D3E8FF" transform="translate(103,130)"/>
<path d="M0 0 C2 1 4 2 6 3 C5.67 4.65 5.34 6.3 5 8 C3.35 8 1.7 8 0 8 C0 7.34 0 6.68 0 6 C1.32 6 2.64 6 4 6 C2.68 4.02 1.36 2.04 0 0 Z " fill="#A8D3FF" transform="translate(330,89)"/>
<path d="M0 0 C0 0.99 0 1.98 0 3 C-0.66 3 -1.32 3 -2 3 C-2.33 3.99 -2.66 4.98 -3 6 C-6 8 -6 8 -9 8 C-9 7.34 -9 6.68 -9 6 C-8.01 5.67 -7.02 5.34 -6 5 C-4.97895449 4.02149805 -3.9793879 3.02019573 -3 2 C-2.01 1.34 -1.02 0.68 0 0 Z " fill="#EDF5FF" transform="translate(287,160)"/>
<path d="M0 0 C0 0.99 0 1.98 0 3 C-0.66 3 -1.32 3 -2 3 C-2.33 3.66 -2.66 4.32 -3 5 C-4.32 5 -5.64 5 -7 5 C-7 4.01 -7 3.02 -7 2 C-4.35261084 0.5393715 -3.10551666 0 0 0 Z " fill="#74B9FF" transform="translate(146,96)"/>
<path d="M0 0 C1.010625 0.0825 2.02125 0.165 3.0625 0.25 C3.7225 1.24 4.3825 2.23 5.0625 3.25 C3.0825 2.59 1.1025 1.93 -0.9375 1.25 C-0.6075 2.9 -0.2775 4.55 0.0625 6.25 C-0.9275 5.92 -1.9175 5.59 -2.9375 5.25 C-3.6875 3.25 -3.6875 3.25 -3.9375 1.25 C-2.9375 0.25 -2.9375 0.25 0 0 Z " fill="#9DCEFF" transform="translate(293.9375,58.75)"/>
<path d="M0 0 C2.475 0.495 2.475 0.495 5 1 C5 5.29 5 9.58 5 14 C4.67 14 4.34 14 4 14 C4 10.37 4 6.74 4 3 C3.34 3 2.68 3 2 3 C2 2.34 2 1.68 2 1 C1.34 0.67 0.68 0.34 0 0 Z " fill="#A6D2FF" transform="translate(99,179)"/>
<path d="M0 0 C0.99 0.33 1.98 0.66 3 1 C3 2.65 3 4.3 3 6 C1.68 5.67 0.36 5.34 -1 5 C-0.67 3.35 -0.34 1.7 0 0 Z " fill="#AED5FE" transform="translate(90,145)"/>
<path d="M0 0 C1.423125 0.2784375 1.423125 0.2784375 2.875 0.5625 C5.89868793 1.28686632 5.89868793 1.28686632 8 0 C8 0.99 8 1.98 8 3 C4.7 3.33 1.4 3.66 -2 4 C-1.34 2.68 -0.68 1.36 0 0 Z " fill="#DBECFF" transform="translate(204,107)"/>
<path d="M0 0 C1.65 0 3.3 0 5 0 C5 1.98 5 3.96 5 6 C3.35 6.66 1.7 7.32 0 8 C0.66 6.68 1.32 5.36 2 4 C2.66 4 3.32 4 4 4 C4 3.01 4 2.02 4 1 C2.35 1.33 0.7 1.66 -1 2 C-0.67 1.34 -0.34 0.68 0 0 Z " fill="#A7D3FF" transform="translate(142,95)"/>
<path d="M0 0 C0.66 0 1.32 0 2 0 C2.33 0.99 2.66 1.98 3 3 C1.35 4.32 -0.3 5.64 -2 7 C-2.99 6.01 -3.98 5.02 -5 4 C-3.35 4 -1.7 4 0 4 C0 2.68 0 1.36 0 0 Z " fill="#E8F3FF" transform="translate(253,110)"/>
<path d="M0 0 C1.32 0 2.64 0 4 0 C4 1.65 4 3.3 4 5 C2.68 5 1.36 5 0 5 C0 3.35 0 1.7 0 0 Z " fill="#62B0FF" transform="translate(216,100)"/>
<path d="M0 0 C1.32 0.66 2.64 1.32 4 2 C3.01 2.33 2.02 2.66 1 3 C1.309375 3.61875 1.61875 4.2375 1.9375 4.875 C2.625 6.25 3.3125 7.625 4 9 C0.125 7.125 0.125 7.125 -1 6 C-1.125 3.5 -1.125 3.5 -1 1 C-0.67 0.67 -0.34 0.34 0 0 Z " fill="#99CCFF" transform="translate(324,85)"/>
<path d="M0 0 C4.33168317 -0.26252625 7.8803623 0.70756464 12 2 C11.67 2.99 11.34 3.98 11 5 C11 4.34 11 3.68 11 3 C9.741875 3.061875 8.48375 3.12375 7.1875 3.1875 C3.27768014 3.20826011 3.27768014 3.20826011 1 1.5 C0.67 1.005 0.34 0.51 0 0 Z " fill="#CBE4FE" transform="translate(270,42)"/>
<path d="M0 0 C0 0.99 0 1.98 0 3 C-2.63259597 5.41914224 -4.59428799 6.86476266 -8 8 C-8 7.34 -8 6.68 -8 6 C-6.25 4.4921875 -6.25 4.4921875 -4 2.875 C-3.2575 2.33617187 -2.515 1.79734375 -1.75 1.2421875 C-1.1725 0.83226562 -0.595 0.42234375 0 0 Z " fill="#DEEEFF" transform="translate(118,128)"/>
<path d="M0 0 C0.99 0 1.98 0 3 0 C3.66 1.32 4.32 2.64 5 4 C4.34 4 3.68 4 3 4 C2.67 4.66 2.34 5.32 2 6 C1.34 5.67 0.68 5.34 0 5 C0 3.35 0 1.7 0 0 Z " fill="#CBE4FF" transform="translate(221,99)"/>
<path d="M0 0 C2.475 0.495 2.475 0.495 5 1 C5.33 2.32 5.66 3.64 6 5 C4.125 4.75 4.125 4.75 2 4 C0.75 1.9375 0.75 1.9375 0 0 Z " fill="#5BACFF" transform="translate(280,50)"/>
<path d="M0 0 C1.24546405 2.49092811 0.7767578 3.41080733 0 6 C-0.66 6 -1.32 6 -2 6 C-2 5.34 -2 4.68 -2 4 C-2.99 4 -3.98 4 -5 4 C-5 3.34 -5 2.68 -5 2 C-3.35 1.34 -1.7 0.68 0 0 Z " fill="#EFF7FF" transform="translate(166,215)"/>
<path d="M0 0 C1.98 0 3.96 0 6 0 C5.34 1.32 4.68 2.64 4 4 C2.68 4 1.36 4 0 4 C0 2.68 0 1.36 0 0 Z " fill="#F3F9FF" transform="translate(98,154)"/>
</svg>
